<?xml version='1.0' encoding='utf-8'?>
<svg xmlns="http://www.w3.org/2000/svg" xmlns:sodipodi="http://sodipodi.sourceforge.net/DTD/sodipodi-0.dtd" width="22mm" height="30mm" viewBox="0 0 22 30" version="1.1"><g id="g1180" transform="translate(-318.40454, -106.94025)"><rect style="fill:#ffffff;fill-opacity:1;stroke:#000000;stroke-width:0.25;stroke-dasharray:none;stroke-opacity:1" id="rect1118" width="22" height="30.000002" x="318.40454" y="106.94025" ry="1.0097859" /><g id="g1029" transform="translate(12.698688,-129.5803)"><path style="baseline-shift:baseline;display:inline;overflow:visible;opacity:1;vector-effect:none;fill:#224e1b;fill-opacity:1;stroke-width:0.476295;stroke-linecap:round;paint-order:stroke markers fill;enable-background:accumulate;stop-color:#000000;stop-opacity:1" d="m 315.51488,238.87051 c -0.17249,-0.003 -0.33034,0.0205 -0.46495,0.0595 -0.13459,0.039 -0.24291,0.079 -0.34802,0.18411 -0.13469,0.1347 -0.36754,0.43842 -0.41769,0.90231 -0.0451,0.41644 0.11466,0.93234 0.64093,1.38352 -0.0304,0.0774 -0.064,0.17644 -0.10044,0.30495 -0.0197,0.0694 -0.0403,0.14768 -0.0616,0.23554 -0.0283,-0.003 -0.0577,-0.004 -0.0873,-0.006 -0.19467,-0.0131 -0.44389,-0.03 -0.68919,-0.0475 -0.49056,-0.0351 -0.9658,-0.0707 -0.9658,-0.0707 -0.0388,-0.003 -0.0777,0.003 -0.11442,0.0153 -0.003,9.4e-4 -0.006,0.003 -0.008,0.004 -0.008,0.003 -0.0163,0.006 -0.0241,0.0109 -0.004,0.003 -0.008,0.005 -0.0133,0.008 -0.006,0.004 -0.013,0.008 -0.0192,0.0109 -0.005,0.004 -0.01,0.008 -0.0141,0.0109 -0.005,0.004 -0.01,0.008 -0.0151,0.0121 -0.005,0.005 -0.008,0.008 -0.0133,0.0131 -0.004,0.005 -0.008,0.008 -0.013,0.013 -0.005,0.005 -0.008,0.0109 -0.0129,0.0165 -0.004,0.005 -0.006,0.008 -0.01,0.0129 -0.006,0.008 -0.0109,0.0168 -0.015,0.0256 -9.4e-4,0.003 -0.003,0.004 -0.003,0.005 -0.005,0.01 -0.008,0.0195 -0.0126,0.0296 -4.8e-4,9.4e-4 -9.4e-4,0.004 -0.003,0.005 -0.005,0.0133 -0.008,0.0268 -0.0109,0.0406 -0.008,0.049 -0.005,0.0996 0.0109,0.14669 l 2.4e-4,4.9e-4 c 0.004,0.0121 0.01,0.0239 0.0152,0.0355 9.4e-4,9.4e-4 0.003,0.004 0.003,0.005 0.005,0.01 0.0109,0.0191 0.017,0.0281 0.003,0.003 0.004,0.006 0.006,0.008 0.005,0.008 0.0109,0.0141 0.0168,0.0206 0.005,0.005 0.008,0.008 0.0135,0.0133 0.005,0.005 0.008,0.008 0.0137,0.0129 0.006,0.005 0.0109,0.008 0.017,0.0128 0.005,0.004 0.008,0.006 0.0129,0.008 0.008,0.005 0.0147,0.008 0.0224,0.0126 0.004,0.003 0.008,0.004 0.0109,0.005 0.008,0.004 0.0169,0.008 0.0256,0.0109 0.003,9.4e-4 0.006,0.003 0.008,0.003 0.01,0.003 0.0185,0.005 0.028,0.008 9.4e-4,4.8e-4 0.004,9.5e-4 0.005,9.5e-4 0,0 0.37974,0.0716 0.82898,0.12553 0.2816,0.0338 0.58085,0.068 0.85776,0.0648 -0.0602,0.33807 -0.12295,0.75762 -0.18507,1.27914 -0.17568,0.008 -0.42737,0.0194 -0.69411,0.0357 -0.24779,0.0152 -0.50893,0.0346 -0.73691,0.0578 -0.20746,0.0211 -0.37366,0.0426 -0.51491,0.0798 -0.0141,0.003 -0.0281,0.005 -0.0419,0.008 -9.4e-4,2.8e-4 -0.003,4.5e-4 -0.004,9.4e-4 -0.006,0.003 -0.0109,0.005 -0.017,0.006 -0.004,9.5e-4 -0.008,0.003 -0.0121,0.005 -0.16858,0.0603 -0.29326,0.19025 -0.36945,0.32612 -0.0805,0.14365 -0.1232,0.29897 -0.15162,0.45953 -0.0568,0.32111 -0.0539,0.66895 -0.0539,0.93948 0,0.13204 0.0244,0.33501 0.0669,0.70246 0.0425,0.36747 0.10409,0.8623 0.18141,1.44381 0.01,0.0755 0.0288,0.19106 0.0393,0.26927 -1.8e-4,0.0287 0.004,0.0572 0.0122,0.0847 0.13127,0.96918 0.28997,2.09036 0.48267,3.29791 -0.23153,0.1893 -0.53573,0.43138 -0.89838,0.70468 -0.0323,-0.017 -0.0831,-0.0487 -0.13908,-0.0933 -0.15295,-0.12194 -0.35301,-0.33221 -0.54051,-0.55355 -0.2882,-0.34022 -0.55265,-0.70527 -0.65962,-0.85604 6e-5,-0.005 0,-0.01 0,-0.0154 0,-0.75024 -0.61358,-1.36382 -1.36382,-1.36382 -0.75024,0 -1.36382,0.61358 -1.36382,1.36382 0,0.75023 0.61358,1.36455 1.36382,1.36455 0.49173,0 0.92468,-0.26377 1.1647,-0.65693 0.12174,0.16118 0.26899,0.349 0.42434,0.53238 0.19972,0.2358 0.41068,0.46437 0.6195,0.63085 0.003,0.003 0.006,0.005 0.008,0.006 -0.86321,0.62406 -1.95942,1.34735 -3.1527,1.96757 -0.13946,0.0728 -0.19356,0.24474 -0.12085,0.38422 0.0724,0.13924 0.24373,0.19373 0.38323,0.12184 1.43572,-0.74625 2.61711,-1.57651 3.54897,-2.27525 0.0401,-0.0135 0.079,-0.0333 0.11515,-0.0607 0.0267,-0.0205 0.0496,-0.0456 0.0674,-0.0741 0.20206,-0.15378 0.48786,-0.35038 0.64831,-0.47848 0.24693,1.49701 0.52464,3.00473 0.80903,4.21969 0.14531,0.6208 0.29258,1.16491 0.44008,1.5974 0.14752,0.43248 0.27329,0.74589 0.48095,0.95991 0.10944,0.11296 0.28963,0.116 0.40268,0.006 0.1132,-0.10943 0.11612,-0.28983 0.008,-0.40292 -0.0598,-0.0615 -0.21425,-0.3449 -0.35175,-0.74798 -0.13747,-0.40309 -0.2806,-0.93348 -0.42333,-1.54324 -0.28545,-1.21955 -0.56887,-2.75812 -0.81864,-4.27999 l -0.004,-0.0259 c 0.0622,-0.10044 0.12351,-0.20296 0.18361,-0.30693 0.21863,0.0639 0.43069,0.12166 0.6365,0.17352 0.061,0.28266 0.26156,1.19959 0.5602,2.4175 l 0.003,0.008 c 4.8e-4,9.4e-4 9.4e-4,0.003 9.4e-4,0.005 0.20463,0.83408 0.4549,1.80839 0.73742,2.81623 0.39207,1.39865 0.8456,2.86216 1.32935,4.11263 0.48376,1.25048 0.98006,2.28275 1.53858,2.8598 0.0856,0.0882 0.21828,0.11137 0.32884,0.0576 4.7e-4,-3.2e-4 9.4e-4,-4.7e-4 9.4e-4,-9.4e-4 0.023,-0.0109 0.0443,-0.0254 0.0635,-0.0423 4.7e-4,-4.8e-4 9.4e-4,-9.4e-4 9.4e-4,-9.4e-4 0.003,-0.003 0.006,-0.005 0.008,-0.008 0.006,-0.006 0.0122,-0.0129 0.018,-0.0197 3.2e-4,-4.9e-4 4.8e-4,-9.4e-4 9.4e-4,-9.4e-4 0.006,-0.008 0.013,-0.0163 0.0187,-0.0249 0.003,-0.003 0.004,-0.005 0.005,-0.008 0.004,-0.008 0.008,-0.015 0.0125,-0.0226 0.003,-0.004 0.004,-0.008 0.006,-0.0121 0.003,-0.008 0.006,-0.0138 0.008,-0.0209 0.003,-0.005 0.004,-0.0109 0.006,-0.0158 9.4e-4,-0.006 0.003,-0.0121 0.004,-0.0175 0.003,-0.006 0.004,-0.0133 0.005,-0.0199 3.8e-4,-0.004 4.7e-4,-0.008 9.4e-4,-0.0109 0.005,-0.0345 0.003,-0.0696 -0.006,-0.10336 -0.71499,-2.78393 -1.40097,-8.10168 -1.40098,-8.10168 -0.0176,-0.13762 -0.13188,-0.24248 -0.27049,-0.24834 0,0 -0.39171,-0.0124 -0.69336,-0.37585 h 2.5e-4 v -2.4e-4 -2.5e-4 -2.4e-4 c -9.4e-4,-0.008 -0.0267,-0.0593 -0.0401,-0.14153 -0.0159,-0.0975 -0.0246,-0.2334 -0.0231,-0.38987 0.003,-0.31295 0.0406,-0.707 0.0911,-1.08742 0.0179,-0.13494 0.0373,-0.2683 0.0571,-0.39627 0.008,0.003 0.0168,0.005 0.0254,0.008 0.19456,0.0569 0.39301,0.11418 0.57127,0.16319 v 1.32345 c 3e-5,0.15727 0.12751,0.28474 0.28478,0.28478 0.15717,-1.7e-4 0.28449,-0.12761 0.28452,-0.28478 v -1.18365 c 0.0239,0.004 0.0502,0.005 0.0827,0.005 0.008,0 0.11551,0.0121 0.24294,0.0194 0.12737,0.008 0.28787,0.008 0.46519,-0.0194 0.11599,-0.0185 0.23947,-0.0522 0.36402,-0.1053 -0.0208,0.10033 -0.0406,0.20322 -0.0598,0.3089 -0.39074,2.14535 -0.45605,5.49257 0.66973,8.8413 0.0505,0.14832 0.21124,0.22804 0.35984,0.17843 0.14934,-0.0499 0.22983,-0.21156 0.17968,-0.36082 -1.08689,-3.23304 -1.02316,-6.50383 -0.64929,-8.55654 0.0718,-0.39442 0.1548,-0.74805 0.24317,-1.06327 0.26096,-0.41492 0.34353,-0.75266 0.34286,-1.00324 0.0661,-0.16021 0.13095,-0.30199 0.19249,-0.42655 0.0248,-0.0503 0.049,-0.0976 0.0724,-0.14202 0.0508,-0.0571 0.0961,-0.1126 0.1361,-0.16589 0.0937,-0.1247 0.16112,-0.24106 0.20675,-0.33079 1.11175,-0.12278 1.88654,-0.12544 2.38305,-0.0972 0.52004,0.0296 0.71353,0.0866 0.71353,0.0866 0.049,0.0137 0.10094,0.0141 0.15015,9.4e-4 0.19257,0.10433 0.41272,0.16392 0.64611,0.16392 0.75023,0 1.3638,-0.61358 1.3638,-1.36382 0,-0.75023 -0.61357,-1.36381 -1.3638,-1.36381 -0.75025,0 -1.36358,0.61358 -1.36358,1.36381 0,0.1998 0.0434,0.3898 0.12134,0.56119 -0.0719,-0.006 -0.15025,-0.0121 -0.23507,-0.017 -0.51482,-0.0293 -1.28665,-0.0267 -2.36901,0.0876 l -0.0773,-0.50432 c 0.16173,-0.23329 0.5813,-0.84585 1.02021,-1.54522 0.56081,-0.8936 1.15436,-1.88741 1.29958,-2.56198 0.13046,-0.60596 0.0598,-1.05822 -0.12356,-1.37686 -0.18348,-0.31865 -0.46216,-0.48082 -0.65692,-0.57005 -0.22896,-0.10481 -0.41418,-0.0297 -0.59146,0.0418 -0.17725,0.0715 -0.35404,0.17378 -0.5191,0.27913 -0.0543,0.0346 -0.10749,0.0695 -0.158,0.10408 -0.0607,-0.41684 -0.22227,-0.85205 -0.41966,-1.26511 -0.29407,-0.61536 -0.66778,-1.16682 -1.02908,-1.48097 -0.0548,-0.0476 -0.11041,-0.092 -0.16712,-0.1334 1.22571,0.005 2.19315,-0.19231 2.89845,-0.42016 0.92693,-0.29944 1.42141,-0.66701 1.42141,-0.66701 0.12579,-0.0947 0.15081,-0.27358 0.0559,-0.39923 -0.0947,-0.12508 -0.27285,-0.14995 -0.39825,-0.0556 0,0 -0.39719,0.30366 -1.2538,0.58039 -0.84758,0.27381 -2.12447,0.50673 -3.84015,0.3313 -0.19905,-0.11053 -1.00173,-0.56932 -1.40024,-0.99832 -3e-4,-3.1e-4 -4.5e-4,-4.7e-4 -9.4e-4,-9.4e-4 -0.003,-0.003 -0.006,-0.005 -0.008,-0.008 -0.31917,-0.3377 -0.72894,-0.45674 -1.07068,-0.46274 z m -0.01,0.56931 c 0.22207,0.004 0.46304,0.0707 0.6616,0.27763 0.004,0.005 0.008,0.01 0.0121,0.0135 0.2204,0.23509 0.36926,0.50579 0.51023,0.81199 -0.0356,0.006 -0.071,0.0134 -0.10555,0.0206 -0.5616,0.11586 -1.03039,0.31192 -1.26757,0.4226 -0.4379,-0.35393 -0.49189,-0.65546 -0.46446,-0.90922 0.0283,-0.26117 0.20543,-0.50344 0.24762,-0.55256 h 2.4e-4 v 2.5e-4 h 2.5e-4 l 2.4e-4,-2.5e-4 h 2.5e-4 c 0.008,-0.003 0.0511,-0.0306 0.10955,-0.0475 0.0771,-0.0223 0.18279,-0.0392 0.29586,-0.0372 z m 2.04093,1.60059 c 0.0961,0.003 0.19208,0.0109 0.28748,0.0237 0.38157,0.0524 0.75266,0.19249 1.07166,0.46988 0.24797,0.21561 0.62076,0.73682 0.88828,1.29661 0.26751,0.55979 0.42967,1.17339 0.37954,1.53586 -0.0594,0.42985 -0.22994,0.9467 -0.49104,1.37687 -0.26109,0.43016 -0.60718,0.76596 -1.00003,0.8969 -0.83131,0.27712 -2.23636,0.0121 -2.23636,0.0121 l -0.008,-0.003 -0.008,-9.4e-4 c 0,0 -0.41273,-0.0644 -0.80559,-0.39898 -0.2792,-0.23778 -0.55002,-0.60029 -0.63601,-1.21294 -2e-5,-0.0243 -0.004,-0.0486 -0.01,-0.0722 -0.0263,-0.23297 -0.0264,-0.50048 0.008,-0.80903 0.0865,-0.77204 0.17438,-1.33006 0.25352,-1.72959 v -2.3e-4 c 0.008,-0.01 0.0164,-0.0205 0.0233,-0.0314 3.1e-4,-4.8e-4 4.7e-4,-9.4e-4 9.4e-4,-0.003 0.006,-0.01 0.0109,-0.0193 0.016,-0.0293 9.4e-4,-0.004 0.004,-0.008 0.005,-0.0109 0.003,-0.008 0.006,-0.0139 0.008,-0.0212 0.003,-0.005 0.004,-0.01 0.005,-0.0155 0.003,-0.008 0.004,-0.0158 0.006,-0.0239 4.8e-4,-0.004 9.4e-4,-0.008 0.003,-0.01 9.4e-4,-0.01 0.003,-0.0183 0.003,-0.0276 2.3e-4,-0.004 3.9e-4,-0.008 4.8e-4,-0.0109 8e-5,-9.4e-4 1.6e-4,-0.003 2.5e-4,-0.003 -6e-5,-0.0109 -4.9e-4,-0.021 -0.003,-0.0314 -3.1e-4,-0.003 -4.9e-4,-0.004 -9.5e-4,-0.006 -9.4e-4,-0.01 -0.004,-0.0194 -0.005,-0.029 -3.1e-4,-0.003 -4.8e-4,-0.004 -9.4e-4,-0.005 -9.4e-4,-0.003 -9.4e-4,-0.006 -0.003,-0.008 0.0269,-0.11829 0.0523,-0.21749 0.0758,-0.30003 0.0487,-0.17172 0.0861,-0.26097 0.10981,-0.3116 0.0505,-0.0266 0.52642,-0.28492 1.2149,-0.42702 0.27139,-0.056 0.56012,-0.0899 0.84841,-0.0812 z m 4.22977,2.91124 c 0.14078,0.0663 0.28523,0.15771 0.38348,0.32835 0.10202,0.1773 0.1713,0.46116 0.0614,0.97222 -0.0952,0.44247 -0.6736,1.50099 -1.225,2.3796 -0.24087,0.3838 -0.47648,0.7412 -0.6653,1.02219 l -0.35689,-2.32545 c 0.0698,-0.0932 0.1349,-0.19015 0.19519,-0.28946 0.28452,-0.46877 0.46833,-0.99667 0.55034,-1.47851 0.10045,-0.0774 0.27916,-0.21088 0.47283,-0.33449 0.14808,-0.0945 0.30558,-0.18183 0.42703,-0.23087 0.0873,-0.0352 0.15205,-0.033 0.15975,-0.0389 h 2.4e-4 l 2.4e-4,-2.4e-4 v -2.6e-4 -2.4e-4 h 2.5e-4 v -2.5e-4 -2.3e-4 l -2.5e-4,-2.7e-4 v -2.3e-4 l -2.4e-4,-2.5e-4 v -2.4e-4 l -2.4e-4,-2.6e-4 c -4.8e-4,-4.7e-4 -9.5e-4,-9.4e-4 -0.003,-0.003 z m -7.38051,0.47062 c -0.006,0.14911 -0.004,0.29122 0.006,0.42629 l -1.00053,0.38545 -0.41105,-0.71501 h 2.5e-4 c 0.0277,-0.004 0.0561,-0.006 0.0852,-0.008 0.2154,-0.0218 0.47034,-0.0409 0.71353,-0.0559 0.2255,-0.0138 0.44052,-0.0243 0.60647,-0.0317 z m -1.89866,0.38149 1.14747,1.99688 c -0.10166,0.0728 -0.20138,0.14729 -0.29807,0.22176 -0.26996,0.20789 -0.51691,0.41702 -0.7096,0.58677 -0.0629,-0.47951 -0.11381,-0.88979 -0.15013,-1.20358 -0.0421,-0.3629 -0.0632,-0.634 -0.0632,-0.63723 0,-0.27054 0.003,-0.59504 0.0455,-0.84006 0.008,-0.0448 0.0176,-0.0866 0.028,-0.12454 z m 1.99662,0.61952 c 0.0726,0.28249 0.18003,0.52488 0.30766,0.73028 -0.15517,0.0524 -0.31036,0.12682 -0.46789,0.21117 -0.0708,0.0379 -0.14194,0.0785 -0.21291,0.1211 l -0.43171,-0.75144 z m 0.38027,1.35544 c -0.175,0.59912 -0.77135,2.57654 -1.73277,4.33193 -0.15815,-1.00958 -0.29863,-1.98184 -0.41251,-2.81575 0.17189,-0.16018 0.54008,-0.49368 0.96558,-0.82135 0.29472,-0.22696 0.61632,-0.45027 0.90797,-0.60646 0.11563,-0.0619 0.17122,-0.052 0.27173,-0.0883 z m 0.5917,0.0645 c 0.3735,0.25181 0.72893,0.33909 0.83981,0.36157 -0.0845,0.26412 -0.23043,0.65062 -0.42138,0.89123 -0.0978,0.12306 -0.0774,0.30204 0.0455,0.39998 0.12321,0.0985 0.30295,0.078 0.40094,-0.0456 0.29427,-0.37078 0.46585,-0.8554 0.54987,-1.1492 0.0506,0.006 0.10384,0.0121 0.15948,0.0178 l 0.0722,1.60477 c 0.008,0.15734 0.14049,0.27908 0.29782,0.27173 0.15684,-0.008 0.27828,-0.13997 0.27148,-0.29684 l -0.0695,-1.54817 c 0.29344,0.003 0.60893,-0.018 0.91314,-0.0805 0.01,0.0968 0.0194,0.20877 0.0281,0.32637 0.0258,0.35033 0.0254,0.77587 -0.003,0.89665 -0.036,0.15337 0.0595,0.30675 0.21291,0.34238 0.15335,0.0359 0.30673,-0.0595 0.34236,-0.21291 0.071,-0.30323 0.043,-0.70054 0.016,-1.06796 -0.013,-0.17591 -0.029,-0.33926 -0.0422,-0.46175 0.1421,-0.0677 0.27453,-0.1517 0.39751,-0.24835 l 0.39283,2.55977 c -9.4e-4,0.0371 0.004,0.074 0.0168,0.10883 l 0.10858,0.70689 v 2.5e-4 c -0.0732,0.10008 -0.18684,0.26785 -0.31629,0.50433 -0.13184,0.14042 -0.30969,0.2924 -0.54838,0.43369 -9e-5,4e-5 -1.5e-4,1.8e-4 -2.4e-4,2.3e-4 l -1.58534,0.48612 h -2.4e-4 c -0.20949,0.0229 -0.43621,0.0356 -0.68179,0.0357 h -9.4e-4 l -0.64167,-0.0453 -0.99437,-0.11005 c -0.44976,-0.0794 -0.94087,-0.19234 -1.47704,-0.34508 0.86475,-1.6492 1.47346,-3.52623 1.71702,-4.33659 z m 8.91539,1.6732 c 0.46443,0 0.83538,0.37095 0.83538,0.83537 0,0.46442 -0.37095,0.83537 -0.83538,0.83537 -0.46441,0 -0.83536,-0.37095 -0.83536,-0.83537 0,-0.46442 0.37095,-0.83537 0.83536,-0.83537 z m -15.3456,1.40097 c 0.45103,0 0.81384,0.34993 0.83439,0.79551 -0.0434,0.0731 -0.0519,0.16171 -0.0232,0.24169 -0.0893,0.3656 -0.41651,0.63354 -0.81126,0.63354 -0.46441,0 -0.83537,-0.37095 -0.83537,-0.83536 0,-0.46443 0.37096,-0.83538 0.83537,-0.83538 z" id="path142" sodipodi:nodetypes="cssscsccscsccccccccccscccccccccccccccccssccsccsscscscsssssccccsscsssscscccccccccsscscsssccccccsscccsccscccccccccccccccccsscscccccccssscccccsccscscsccssssccccsssssscsscscccscsscccscccccscccccsssscsssssscccsccsscccsssscccsccccccscscccsssccscssccccccccccccsccscccsssssccscsssscccsccccccssccccccccscccccsccscccccccsccssccccccssssssccssss" /><path style="baseline-shift:baseline;display:inline;overflow:visible;opacity:1;vector-effect:none;fill:#be1713;fill-opacity:1;stroke-width:0.476295;stroke-linecap:round;stroke-linejoin:round;paint-order:stroke markers fill;enable-background:accumulate;stop-color:#000000;stop-opacity:1" d="m 317.26294,242.39713 c -0.49427,0 -0.9005,0.40717 -0.9005,0.90142 0,0.49427 0.40623,0.9005 0.9005,0.9005 0.49426,0 0.90142,-0.40623 0.90142,-0.9005 0,-0.49425 -0.40716,-0.90142 -0.90142,-0.90142 z m 0,0.56932 c 0.1864,0 0.3321,0.1457 0.3321,0.3321 0,0.1864 -0.1457,0.33117 -0.3321,0.33117 -0.1864,0 -0.33117,-0.14477 -0.33117,-0.33117 0,-0.1864 0.14477,-0.3321 0.33117,-0.3321 z" id="path177" /></g></g></svg>